<svg width="18" height="15" viewBox="0 0 18 15" fill="none" xmlns="http://www.w3.org/2000/svg">
<path d="M15.3 0H2.7C1.98392 0 1.29716 0.284464 0.790812 0.790812C0.284464 1.29716 0 1.98392 0 2.7V11.7C0 12.4161 0.284464 13.1028 0.790812 13.6092C1.29716 14.1155 1.98392 14.4 2.7 14.4H15.3C16.0161 14.4 16.7028 14.1155 17.2092 13.6092C17.7155 13.1028 18 12.4161 18 11.7V2.7C18 1.98392 17.7155 1.29716 17.2092 0.790812C16.7028 0.284464 16.0161 0 15.3 0ZM14.697 1.8L9 6.075L3.303 1.8H14.697ZM15.3 12.6H2.7C2.46131 12.6 2.23239 12.5052 2.0636 12.3364C1.89482 12.1676 1.8 11.9387 1.8 11.7V2.925L8.46 7.92C8.61579 8.03684 8.80527 8.1 9 8.1C9.19473 8.1 9.38421 8.03684 9.54 7.92L16.2 2.925V11.7C16.2 11.9387 16.1052 12.1676 15.9364 12.3364C15.7676 12.5052 15.5387 12.6 15.3 12.6Z" fill="#808080"/>
</svg>
