<svg width="18" height="18" viewBox="0 0 18 18" fill="none" xmlns="http://www.w3.org/2000/svg">
<path d="M9 0.000460603C6.63829 -0.0235384 4.36367 0.89114 2.67605 2.54347C0.988435 4.1958 0.0259038 6.45059 0 8.81228C0.00910013 10.6787 0.609499 12.4942 1.71496 13.998C2.82042 15.5019 4.37406 16.6167 6.15273 17.1823C6.60273 17.2641 6.76636 16.9941 6.76636 16.7568C6.76636 16.5196 6.76636 15.9959 6.76636 15.2596C4.26273 15.7914 3.73091 14.0814 3.73091 14.0814C3.56424 13.5446 3.20992 13.0857 2.73273 12.7886C1.91455 12.2486 2.79818 12.2568 2.79818 12.2568C3.08099 12.2946 3.35156 12.396 3.58962 12.5533C3.82767 12.7106 4.02702 12.9197 4.17273 13.165C4.42664 13.6053 4.84325 13.9283 5.33292 14.0645C5.82258 14.2007 6.34614 14.1392 6.79091 13.8932C6.83665 13.4451 7.03955 13.0278 7.36364 12.715C5.36727 12.4941 3.27273 11.7414 3.27273 8.36228C3.25487 7.48084 3.58056 6.62701 4.18091 5.98137C3.9075 5.22461 3.93978 4.39108 4.27091 3.65773C4.27091 3.65773 5.03182 3.42046 6.72545 4.55773C8.19973 4.16487 9.75118 4.16487 11.2255 4.55773C12.9436 3.42046 13.68 3.65773 13.68 3.65773C14.0111 4.39108 14.0434 5.22461 13.77 5.98137C14.3843 6.61517 14.7276 7.46327 14.7273 8.34592C14.7273 11.7332 12.6164 12.4777 10.6364 12.6986C10.8532 12.9091 11.0206 13.1651 11.1267 13.448C11.2328 13.7309 11.2749 14.0339 11.25 14.335V16.7486C11.25 16.7486 11.4136 17.2641 11.8636 17.1741C13.6373 16.605 15.1857 15.4899 16.2877 13.9882C17.3897 12.4865 17.989 10.6749 18 8.81228C17.9741 6.45059 17.0116 4.1958 15.3239 2.54347C13.6363 0.89114 11.3617 -0.0235384 9 0.000460603Z" fill="#808080"/>
</svg>
