<svg width="19" height="19" viewBox="0 0 19 19" fill="none" xmlns="http://www.w3.org/2000/svg">
<path d="M9.77659 3.93655C10.0153 3.93655 10.2442 3.84173 10.413 3.67294C10.5818 3.50416 10.6766 3.27524 10.6766 3.03655V1.23655C10.6766 0.997853 10.5818 0.768934 10.413 0.600152C10.2442 0.431369 10.0153 0.336548 9.77659 0.336548C9.53789 0.336548 9.30897 0.431369 9.14019 0.600152C8.97141 0.768934 8.87659 0.997853 8.87659 1.23655V3.03655C8.87659 3.27524 8.97141 3.50416 9.14019 3.67294C9.30897 3.84173 9.53789 3.93655 9.77659 3.93655Z" fill="#333333"/>
<path d="M17.8766 8.43658H16.0766C15.8379 8.43658 15.609 8.53141 15.4402 8.70019C15.2715 8.86897 15.1766 9.09789 15.1766 9.33658C15.1766 9.57528 15.2715 9.8042 15.4402 9.97298C15.609 10.1418 15.8379 10.2366 16.0766 10.2366H17.8766C18.1153 10.2366 18.3442 10.1418 18.513 9.97298C18.6818 9.8042 18.7766 9.57528 18.7766 9.33658C18.7766 9.09789 18.6818 8.86897 18.513 8.70019C18.3442 8.53141 18.1153 8.43658 17.8766 8.43658Z" fill="#333333"/>
<path d="M4.37661 9.33658C4.37661 9.09789 4.28179 8.86897 4.11301 8.70019C3.94422 8.53141 3.71531 8.43658 3.47661 8.43658H1.67661C1.43792 8.43658 1.209 8.53141 1.04022 8.70019C0.871432 8.86897 0.776611 9.09789 0.776611 9.33658C0.776611 9.57528 0.871432 9.8042 1.04022 9.97298C1.209 10.1418 1.43792 10.2366 1.67661 10.2366H3.47661C3.71531 10.2366 3.94422 10.1418 4.11301 9.97298C4.28179 9.8042 4.37661 9.57528 4.37661 9.33658Z" fill="#333333"/>
<path d="M4.5746 3.03656C4.39916 2.87067 4.165 2.78126 3.92364 2.78802C3.68228 2.79477 3.45349 2.89712 3.2876 3.07256C3.12171 3.248 3.0323 3.48216 3.03905 3.72352C3.0458 3.96488 3.14816 4.19367 3.3236 4.35956L4.6196 5.61056C4.70657 5.69454 4.80957 5.76014 4.92245 5.80343C5.03533 5.84673 5.15578 5.86684 5.2766 5.86256C5.39783 5.8621 5.51772 5.83715 5.62908 5.7892C5.74043 5.74126 5.84095 5.67131 5.9246 5.58356C6.09222 5.41494 6.18631 5.18683 6.18631 4.94906C6.18631 4.71129 6.09222 4.48319 5.9246 4.31456L4.5746 3.03656Z" fill="#333333"/>
<path d="M14.2766 5.86256C14.5083 5.86164 14.7308 5.77138 14.8976 5.61056L16.1936 4.35956C16.3517 4.19437 16.441 3.97519 16.4434 3.74655C16.4457 3.5179 16.361 3.29693 16.2063 3.12852C16.0516 2.9601 15.8386 2.85687 15.6106 2.8398C15.3826 2.82272 15.1566 2.89307 14.9786 3.03656L13.6826 4.31456C13.515 4.48319 13.4209 4.7113 13.4209 4.94906C13.4209 5.18683 13.515 5.41494 13.6826 5.58356C13.8384 5.74801 14.0506 5.84764 14.2766 5.86256Z" fill="#333333"/>
<path d="M9.77659 14.7366C9.53789 14.7366 9.30897 14.8314 9.14019 15.0002C8.97141 15.169 8.87659 15.3979 8.87659 15.6366V17.4366C8.87659 17.6753 8.97141 17.9042 9.14019 18.073C9.30897 18.2418 9.53789 18.3366 9.77659 18.3366C10.0153 18.3366 10.2442 18.2418 10.413 18.073C10.5818 17.9042 10.6766 17.6753 10.6766 17.4366V15.6366C10.6766 15.3979 10.5818 15.169 10.413 15.0002C10.2442 14.8314 10.0153 14.7366 9.77659 14.7366Z" fill="#333333"/>
<path d="M14.9336 13.0626C14.7618 12.8967 14.531 12.8059 14.2922 12.8101C14.0534 12.8143 13.826 12.9132 13.6601 13.0851C13.4942 13.2569 13.4034 13.4877 13.4076 13.7265C13.4118 13.9653 13.5108 14.1927 13.6826 14.3586L14.9786 15.6366C15.1455 15.7974 15.3679 15.8877 15.5996 15.8886C15.7202 15.8893 15.8397 15.8657 15.951 15.8194C16.0623 15.773 16.1632 15.7047 16.2476 15.6186C16.332 15.5349 16.3989 15.4354 16.4446 15.3257C16.4903 15.216 16.5138 15.0984 16.5138 14.9796C16.5138 14.8608 16.4903 14.7431 16.4446 14.6335C16.3989 14.5238 16.332 14.4242 16.2476 14.3406L14.9336 13.0626Z" fill="#333333"/>
<path d="M4.61959 13.0626L3.32359 14.3136C3.23924 14.3972 3.17228 14.4968 3.12659 14.6064C3.0809 14.7161 3.05737 14.8337 3.05737 14.9526C3.05737 15.0714 3.0809 15.189 3.12659 15.2987C3.17228 15.4083 3.23924 15.5079 3.32359 15.5916C3.408 15.6777 3.50886 15.746 3.62018 15.7923C3.7315 15.8387 3.851 15.8623 3.97159 15.8616C4.19345 15.8634 4.4082 15.7833 4.57459 15.6366L5.87059 14.3856C6.04245 14.2197 6.14137 13.9923 6.14559 13.7535C6.14981 13.5146 6.05898 13.2839 5.89309 13.1121C5.7272 12.9402 5.49983 12.8413 5.261 12.8371C5.02217 12.8328 4.79145 12.9237 4.61959 13.0896V13.0626Z" fill="#333333"/>
<path d="M9.77664 5.73657C9.06463 5.73657 8.3686 5.94771 7.77659 6.34328C7.18457 6.73885 6.72315 7.3011 6.45067 7.95891C6.1782 8.61673 6.1069 9.34057 6.24581 10.0389C6.38472 10.7372 6.72758 11.3787 7.23105 11.8822C7.73452 12.3856 8.37598 12.7285 9.07431 12.8674C9.77264 13.0063 10.4965 12.935 11.1543 12.6625C11.8121 12.3901 12.3744 11.9286 12.7699 11.3366C13.1655 10.7446 13.3766 10.0486 13.3766 9.33657C13.3766 8.38179 12.9974 7.46612 12.3222 6.79099C11.6471 6.11586 10.7314 5.73657 9.77664 5.73657Z" fill="#333333"/>
</svg>
