<svg width="18" height="18" viewBox="0 0 18 18" fill="none" xmlns="http://www.w3.org/2000/svg">
<path opacity="0.8" fill-rule="evenodd" clip-rule="evenodd" d="M1.32862 0H16.6669C17.4021 0 18 0.581063 18 1.29656V16.7001C18 17.4172 17.4021 17.9994 16.668 17.9994H1.32862C0.59625 17.9994 0 17.4172 0 16.7001V1.29656C0 0.581063 0.59625 0 1.32862 0ZM5.34375 6.74793H2.66907V15.3373H5.34375V6.74793ZM5.55132 4.01981C5.55132 3.16649 4.85775 2.47293 4.00444 2.47293C3.80116 2.47271 3.59983 2.51256 3.41196 2.5902C3.22409 2.66783 3.05336 2.78174 2.90954 2.9254C2.76573 3.06907 2.65163 3.23967 2.57379 3.42745C2.49595 3.61524 2.45588 3.81653 2.45588 4.01981C2.45692 4.43029 2.62048 4.82365 2.91079 5.11386C3.2011 5.40406 3.59452 5.56748 4.005 5.56837C4.85775 5.56837 5.55132 4.87312 5.55132 4.01981ZM7.01775 6.74793H7.01382L7.01775 6.74624V6.74793ZM7.01775 6.74793V15.3356H9.68513V11.0865C9.68513 9.96712 9.89888 8.88149 11.2883 8.88149C12.6574 8.88149 12.6754 10.164 12.6754 11.1596V15.3379H15.3433V10.6264C15.3433 8.31393 14.8444 6.53474 12.141 6.53474C10.8371 6.53474 9.96638 7.24687 9.60975 7.92187H9.57432V6.74793H7.01775Z" fill="#808080"/>
</svg>
