<svg width="33" height="31" viewBox="0 0 34 26" fill="none" xmlns="http://www.w3.org/2000/svg">
<g filter="url(#filter0_d_9_39)">
<path d="M2.82484 23.04C2.36084 23.04 1.95284 23.008 1.60084 22.944C1.24884 22.896 0.944844 22.84 0.688844 22.776V19.752C0.944844 19.816 1.21684 19.872 1.50484 19.92C1.77684 19.968 2.07284 19.992 2.39284 19.992C2.80884 19.992 3.18484 19.912 3.52084 19.752C3.87284 19.592 4.14484 19.288 4.33684 18.84C4.52884 18.392 4.62484 17.752 4.62484 16.92V0.863999H8.24884V16.896C8.24884 18.368 8.01684 19.552 7.55284 20.448C7.10484 21.36 6.47284 22.016 5.65684 22.416C4.84084 22.832 3.89684 23.04 2.82484 23.04ZM19.8422 3.648C19.1542 3.648 18.5382 3.784 17.9942 4.056C17.4662 4.328 17.0182 4.72 16.6502 5.232C16.2822 5.728 16.0022 6.336 15.8102 7.056C15.6342 7.776 15.5462 8.584 15.5462 9.48C15.5462 10.696 15.6902 11.736 15.9782 12.6C16.2822 13.448 16.7542 14.096 17.3942 14.544C18.0342 14.992 18.8502 15.216 19.8422 15.216C20.5462 15.216 21.2422 15.136 21.9302 14.976C22.6342 14.816 23.3942 14.592 24.2102 14.304V17.352C23.4582 17.656 22.7142 17.88 21.9782 18.024C21.2422 18.168 20.4182 18.24 19.5062 18.24C17.7462 18.24 16.2902 17.88 15.1382 17.16C14.0022 16.424 13.1622 15.4 12.6182 14.088C12.0742 12.76 11.8022 11.216 11.8022 9.456C11.8022 8.16 11.9782 6.976 12.3302 5.904C12.6822 4.816 13.1942 3.88 13.8662 3.096C14.5542 2.312 15.3942 1.704 16.3862 1.272C17.3942 0.839999 18.5462 0.623999 19.8422 0.623999C20.6902 0.623999 21.5382 0.735999 22.3862 0.959999C23.2502 1.168 24.0742 1.456 24.8582 1.824L23.6822 4.776C23.0422 4.472 22.3942 4.208 21.7382 3.984C21.0982 3.76 20.4662 3.648 19.8422 3.648ZM27.0594 16.32C27.0594 15.584 27.2594 15.072 27.6594 14.784C28.0594 14.48 28.5474 14.328 29.1234 14.328C29.6834 14.328 30.1634 14.48 30.5634 14.784C30.9634 15.072 31.1634 15.584 31.1634 16.32C31.1634 17.024 30.9634 17.536 30.5634 17.856C30.1634 18.16 29.6834 18.312 29.1234 18.312C28.5474 18.312 28.0594 18.16 27.6594 17.856C27.2594 17.536 27.0594 17.024 27.0594 16.32Z" fill="#333333"/>
</g>
<defs>
<filter id="filter0_d_9_39" x="0.688965" y="0.624023" width="32.4746" height="24.416" filterUnits="userSpaceOnUse" color-interpolation-filters="sRGB">
<feFlood flood-opacity="0" result="BackgroundImageFix"/>
<feColorMatrix in="SourceAlpha" type="matrix" values="0 0 0 0 0 0 0 0 0 0 0 0 0 0 0 0 0 0 127 0" result="hardAlpha"/>
<feOffset dx="2" dy="2"/>
<feComposite in2="hardAlpha" operator="out"/>
<feColorMatrix type="matrix" values="0 0 0 0 0.6 0 0 0 0 0.6 0 0 0 0 0.6 0 0 0 0.5 0"/>
<feBlend mode="normal" in2="BackgroundImageFix" result="effect1_dropShadow_9_39"/>
<feBlend mode="normal" in="SourceGraphic" in2="effect1_dropShadow_9_39" result="shape"/>
</filter>
</defs>
</svg>
