<svg width="19" height="15" viewBox="0 0 19 15" fill="none" xmlns="http://www.w3.org/2000/svg">
<path d="M19 1.18763V13.0626C19 13.7355 18.4854 14.2501 17.8125 14.2501H16.625V3.47317L9.5 8.58971L2.375 3.47317V14.2501H1.1875C0.513792 14.2501 0 13.7355 0 13.0626V1.18763C0 0.851168 0.12825 0.554293 0.341208 0.342126C0.452346 0.231578 0.58447 0.144372 0.729807 0.0856385C0.875145 0.0269053 1.03076 -0.00216898 1.1875 0.00012601H1.58333L9.5 5.73971L17.4167 0.00012601H17.8125C18.149 0.00012601 18.4458 0.128376 18.6588 0.342126C18.8725 0.554293 19 0.851168 19 1.18763Z" fill="black"/>
</svg>
