<svg width="19" height="19" viewBox="0 0 19 19" fill="none" xmlns="http://www.w3.org/2000/svg">
<path d="M12.3115 9.20525C12.9312 9.20525 13.4224 9.42442 13.7852 9.86277C14.148 10.3162 14.3294 10.8528 14.3294 11.4726C14.3294 11.9411 14.2424 12.3417 14.0686 12.6742C13.8948 13.0068 13.6794 13.2788 13.4224 13.4905C13.1655 13.7021 12.8481 13.8608 12.4702 13.9666C12.0772 14.0875 11.7106 14.1631 11.3705 14.1933C11.0304 14.2235 10.6412 14.2387 10.2029 14.2387H8.86516C8.44193 14.2387 8.05648 14.2235 7.70883 14.1933C7.36118 14.1631 6.99085 14.0875 6.59785 13.9666C6.20485 13.8608 5.88743 13.7021 5.64558 13.4905C5.38862 13.2788 5.17701 13.0068 5.01074 12.6742C4.84447 12.3417 4.76134 11.9411 4.76134 11.4726C4.76134 10.8528 4.94272 10.3162 5.30549 9.86277C5.66826 9.42442 6.15951 9.20525 6.77924 9.20525C6.90016 9.20525 7.08532 9.22037 7.33473 9.2506C7.58413 9.28083 7.90533 9.31862 8.29833 9.36396C8.47971 9.39419 8.67621 9.41687 8.88783 9.43198C9.09944 9.4471 9.31862 9.45465 9.54535 9.45465C9.75696 9.45465 9.96858 9.4471 10.1802 9.43198C10.3918 9.41687 10.5883 9.39419 10.7697 9.36396C11.1778 9.31862 11.5066 9.28083 11.756 9.2506C12.0054 9.22037 12.1905 9.20525 12.3115 9.20525ZM7.59547 12.7196C7.83731 12.4324 7.97713 12.1225 8.01492 11.79C8.0527 11.4574 8.02625 11.14 7.93556 10.8377C7.85998 10.611 7.74284 10.4069 7.58413 10.2255C7.42542 10.0442 7.24025 9.95346 7.02864 9.95346C6.81702 9.95346 6.62053 10.0442 6.43914 10.2255C6.21241 10.5127 6.08015 10.8226 6.04236 11.1551C6.00457 11.4877 6.02347 11.8051 6.09905 12.1074C6.17462 12.3341 6.29177 12.5382 6.45048 12.7196C6.60919 12.901 6.80191 12.9916 7.02864 12.9916C7.24025 12.9916 7.4292 12.901 7.59547 12.7196ZM12.6289 12.7196C12.8707 12.4324 13.0105 12.1225 13.0483 11.79C13.0861 11.4574 13.0521 11.14 12.9463 10.8377C12.8858 10.611 12.7763 10.4069 12.6175 10.2255C12.4588 10.0442 12.2737 9.95346 12.0621 9.95346C11.8504 9.95346 11.6539 10.0442 11.4726 10.2255C11.2458 10.5127 11.1136 10.8226 11.0758 11.1551C11.038 11.4877 11.0569 11.8051 11.1325 12.1074C11.208 12.3341 11.3252 12.5382 11.4839 12.7196C11.6426 12.901 11.8353 12.9916 12.0621 12.9916C12.2737 12.9916 12.4626 12.901 12.6289 12.7196ZM9.5 0C10.815 0 12.0469 0.249403 13.1957 0.74821C14.3445 1.24702 15.3496 1.92343 16.2112 2.77745C17.0728 3.63146 17.753 4.63663 18.2518 5.79296C18.7506 6.94928 19 8.18496 19 9.5C19 10.815 18.7506 12.0469 18.2518 13.1957C17.753 14.3445 17.0728 15.3496 16.2112 16.2112C15.3496 17.0728 14.3445 17.753 13.1957 18.2518C12.0469 18.7506 10.815 19 9.5 19C8.18496 19 6.95306 18.7506 5.8043 18.2518C4.65553 17.753 3.65036 17.0728 2.78878 16.2112C1.92721 15.3496 1.24702 14.3445 0.74821 13.1957C0.249403 12.0469 0 10.815 0 9.5C0 8.18496 0.249403 6.94928 0.74821 5.79296C1.24702 4.63663 1.92721 3.63146 2.78878 2.77745C3.65036 1.92343 4.65553 1.24702 5.8043 0.74821C6.95306 0.249403 8.18496 0 9.5 0ZM15.599 12.6969C15.9165 12.0469 16.0752 11.1778 16.0752 10.0895C16.0752 8.81981 15.72 7.77685 15.0095 6.96062C15.1456 6.53739 15.2136 6.09905 15.2136 5.64558C15.2136 5.05609 15.0851 4.4817 14.8282 3.92243C14.284 3.92243 13.7852 4.02824 13.3317 4.23986C13.1201 4.34566 12.8934 4.47792 12.6516 4.63663C12.4097 4.79535 12.1452 4.98051 11.858 5.19212C11.1778 5.01074 10.4447 4.92005 9.65871 4.92005C9.23548 4.92005 8.82359 4.9465 8.42303 4.9994C8.02247 5.05231 7.6257 5.12411 7.2327 5.2148C6.65831 4.76134 6.15951 4.43636 5.73628 4.23986C5.28282 4.02824 4.79157 3.92243 4.26253 3.92243C3.99045 4.46659 3.85442 5.04097 3.85442 5.64558C3.85442 6.11416 3.92243 6.56006 4.05847 6.98329C3.34805 7.81464 2.99284 8.85004 2.99284 10.0895C2.99284 11.1778 3.15911 12.0469 3.49165 12.6969C3.73349 13.2259 4.1076 13.6454 4.61396 13.9553C5.12033 14.2651 5.64558 14.4881 6.18974 14.6241C6.58274 14.745 6.98329 14.8282 7.39141 14.8735C7.60302 14.9037 7.80708 14.9264 8.00358 14.9415C8.20008 14.9566 8.38146 14.9642 8.54773 14.9642C8.714 14.9793 8.88783 14.9869 9.06921 14.9869H10.3502L10.9737 14.9642L11.5973 14.8962L12.3115 14.7828C12.8405 14.6921 13.2864 14.5712 13.6492 14.42C14.0422 14.2538 14.4125 14.0233 14.7601 13.7285C15.1078 13.4338 15.3874 13.0899 15.599 12.6969Z" fill="black"/>
</svg>
