<svg width="19" height="19" viewBox="0 0 19 19" fill="none" xmlns="http://www.w3.org/2000/svg">
<path d="M9.48865 0C10.8053 0 12.0386 0.249701 13.1888 0.749104C14.3389 1.24851 15.3453 1.92573 16.2079 2.78076C17.0705 3.6358 17.7515 4.63839 18.2509 5.78853C18.7503 6.93867 19 8.17204 19 9.48865C19 10.8053 18.7503 12.0386 18.2509 13.1888C17.7515 14.3389 17.0705 15.3453 16.2079 16.2079C15.3453 17.0705 14.3389 17.7515 13.1888 18.2509C12.0386 18.7503 10.8053 19 9.48865 19C8.17204 19 6.93867 18.7503 5.78853 18.2509C4.63839 17.7515 3.6358 17.0705 2.78076 16.2079C1.92573 15.3453 1.24851 14.3389 0.749104 13.1888C0.249701 12.0386 0 10.8053 0 9.48865C0 8.17204 0.249701 6.93867 0.749104 5.78853C1.24851 4.63839 1.92573 3.6358 2.78076 2.78076C3.6358 1.92573 4.63839 1.24851 5.78853 0.749104C6.93867 0.249701 8.17204 0 9.48865 0ZM6.53763 7.12784H4.15412V14.8459H6.53763V7.12784ZM5.33453 6.51493C5.66746 6.51493 5.95121 6.40143 6.18578 6.17443C6.42035 5.94743 6.53763 5.66746 6.53763 5.33453C6.53763 5.00159 6.42035 4.72162 6.18578 4.49462C5.95121 4.26762 5.66746 4.15412 5.33453 4.15412C5.00159 4.15412 4.72162 4.26762 4.49462 4.49462C4.26762 4.72162 4.15412 5.00159 4.15412 5.33453C4.15412 5.66746 4.26762 5.94743 4.49462 6.17443C4.72162 6.40143 5.00159 6.51493 5.33453 6.51493ZM14.8459 10.374C14.8459 9.82915 14.6945 9.2957 14.3919 8.7736C14.0892 8.25149 13.6957 7.85424 13.2115 7.58184C12.7726 7.33971 12.2618 7.21107 11.6792 7.19594C11.0966 7.1808 10.5631 7.27917 10.0789 7.49104V7.12784H7.71804V14.8459H10.0789V10.1243L11.0777 9.64755C11.1987 9.58702 11.3614 9.55675 11.5657 9.55675C11.77 9.55675 11.9327 9.59458 12.0538 9.67025C12.1446 9.71565 12.2354 9.81402 12.3262 9.96535C12.417 10.1167 12.4624 10.2529 12.4624 10.374V14.8459H14.8459V10.374Z" fill="black"/>
</svg>
