<svg width="16" height="22" viewBox="0 0 16 22" fill="none" xmlns="http://www.w3.org/2000/svg">
<path d="M7.61269 0.640747C3.79039 0.640747 0.68927 3.59234 0.68927 7.22761C0.68927 11.4105 5.30488 18.0392 6.99968 20.3287C7.07003 20.4254 7.16223 20.504 7.26877 20.5583C7.3753 20.6125 7.49315 20.6407 7.61269 20.6407C7.73223 20.6407 7.85008 20.6125 7.95661 20.5583C8.06315 20.504 8.15535 20.4254 8.2257 20.3287C9.9205 18.0402 14.5361 11.4139 14.5361 7.22761C14.5361 3.59234 11.435 0.640747 7.61269 0.640747Z" stroke="black" stroke-linecap="round" stroke-linejoin="round"/>
<path d="M7.61268 9.87196C8.88724 9.87196 9.92048 8.83872 9.92048 7.56415C9.92048 6.28959 8.88724 5.25635 7.61268 5.25635C6.33811 5.25635 5.30487 6.28959 5.30487 7.56415C5.30487 8.83872 6.33811 9.87196 7.61268 9.87196Z" stroke="black" stroke-linecap="round" stroke-linejoin="round"/>
</svg>
